<svg xmlns="http://www.w3.org/2000/svg" xml:space="preserve" x="0px" y="0px" fill="#00d646" viewBox="0 0 253 134"><path d="M182.225 131.518c-21.754-43.053-43.338-85.796-65.418-129.52 8.76 0 16.7.69 24.465-.183 8.798-.99 13.063 2.391 16.953 10.226 13.457 27.104 27.817 53.762 41.96 80.523 1.48 2.799 1.599 4.953.105 7.815-5 9.585-9.619 19.37-14.553 28.991-.565 1.101-2.202 1.652-3.512 2.148M2.95 27V2.331h30.634v131.337H2.95zm217.248 1.938c-5.039-11.8-13.055-20.362-24.818-26.548h57.572c-12.328 9.992-22.406 21.062-29.658 35.708a3836 3836 0 0 1-3.096-9.16M79.856 115.844a9469 9469 0 0 0 14.735-22.088v39.804H63.666a6571 6571 0 0 0 16.19-17.716" opacity="1.000000"/></svg>