<svg version="1.1" id="Layer_1" xmlns="http://www.w3.org/2000/svg" xmlns:xlink="http://www.w3.org/1999/xlink" fill="#00d646" x="0px"
	y="0px" width="100%" viewBox="0 0 253 134" enable-background="new 0 0 253 134" xml:space="preserve">
	<path opacity="1.000000" stroke="none" d="
M182.224548,131.518173 
	C160.470627,88.464859 138.886627,45.721535 116.807465,1.997659 
	C125.566879,1.997659 133.507111,2.687956 141.271545,1.814919 
	C150.069672,0.825655 154.335144,4.206254 158.224838,12.040503 
	C171.682236,39.145241 186.042007,65.803268 200.185944,92.563881 
	C201.665375,95.363007 201.783676,97.516808 200.290344,100.379059 
	C195.289322,109.964317 190.671341,119.748909 185.736694,129.369995 
	C185.171936,130.471130 183.534531,131.022110 182.224548,131.518173 
z" />
	<path opacity="1.000000" stroke="none" d="
M2.950525,27.000010 
	C2.950478,18.550686 2.950478,10.601360 2.950478,2.331120 
	C13.373336,2.331120 23.275223,2.331120 33.583862,2.331120 
	C33.583862,46.034012 33.583862,89.684273 33.583862,133.668152 
	C23.563217,133.668152 13.663542,133.668152 2.950572,133.668152 
	C2.950572,98.243660 2.950572,62.871834 2.950525,27.000010 
z" />
	<path opacity="1.000000" stroke="none" d="
M220.197540,28.937897 
	C215.159424,17.137869 207.143066,8.575911 195.379654,2.390331 
	C214.818253,2.390331 233.497894,2.390331 252.951965,2.390331 
	C240.624405,12.382415 230.545792,23.452076 223.294357,38.098034 
	C222.122971,34.642315 221.218155,31.972984 220.197540,28.937897 
z" />
	<path opacity="1.000000" stroke="none" d="
M79.856277,115.844040 
	C84.848450,108.390030 89.622566,101.218773 94.591080,93.755508 
	C94.591080,106.938278 94.591080,120.024857 94.591080,133.560089 
	C84.139000,133.560089 73.511665,133.560089 63.665565,133.560089 
	C68.786697,127.970642 74.212456,122.048706 79.856277,115.844040 
z" />
</svg>